<?xml version="1.0" encoding="UTF-8" standalone="no"?>
<svg
   xmlns:dc="http://purl.org/dc/elements/1.1/"
   xmlns:cc="http://creativecommons.org/ns#"
   xmlns:rdf="http://www.w3.org/1999/02/22-rdf-syntax-ns#"
   xmlns:svg="http://www.w3.org/2000/svg"
   xmlns="http://www.w3.org/2000/svg"
   xmlns:sodipodi="http://sodipodi.sourceforge.net/DTD/sodipodi-0.dtd"
   xmlns:inkscape="http://www.inkscape.org/namespaces/inkscape"
   width="500mm"
   height="500mm"
   viewBox="0 0 500 500"
   version="1.1"
   id="svg8"
   inkscape:version="1.0 (4035a4fb49, 2020-05-01)"
   sodipodi:docname="raeffs-logo.svg"
   inkscape:export-filename="D:\inkscape\raeffs-logo.png"
   inkscape:export-xdpi="50.799999"
   inkscape:export-ydpi="50.799999">
  <defs
     id="defs2">
    <inkscape:path-effect
       hide_knots="false"
       only_selected="false"
       apply_with_radius="true"
       apply_no_radius="true"
       use_knot_distance="true"
       flexible="false"
       chamfer_steps="1"
       radius="60"
       mode="F"
       method="auto"
       unit="px"
       satellites_param="F,0,0,1,0,15.875,0,1 @ F,0,0,1,0,15.875,0,1 @ F,0,0,1,0,15.875,0,1 @ F,0,0,1,0,15.875,0,1 @ F,0,0,1,0,15.875,0,1 @ F,0,0,1,0,15.875,0,1 @ F,0,0,1,0,15.875,0,1 @ F,0,0,1,0,15.875,0,1 @ F,0,0,1,0,15.875,0,1 @ F,0,0,1,0,15.875,0,1 @ F,0,0,1,0,15.875,0,1 @ F,0,0,1,0,15.875,0,1 @ F,0,0,1,0,15.875,0,1 @ F,0,0,1,0,15.875,0,1 @ F,0,0,1,0,15.875,0,1 @ F,0,0,1,0,15.875,0,1 @ F,0,0,1,0,15.875,0,1 @ F,0,0,1,0,15.875,0,1 @ F,0,0,1,0,15.875,0,1 @ F,0,0,1,0,15.875,0,1 @ F,0,0,1,0,15.875,0,1 @ F,0,0,1,0,15.875,0,1 @ F,0,0,1,0,15.875,0,1 @ F,0,0,1,0,15.875,0,1 @ F,0,0,1,0,15.875,0,1 @ F,0,0,1,0,15.875,0,1 @ F,0,0,1,0,15.875,0,1 @ F,0,0,1,0,15.875,0,1 @ F,0,0,1,0,15.875,0,1 @ F,0,0,1,0,15.875,0,1 @ F,0,0,1,0,15.875,0,1 @ F,0,0,1,0,15.875,0,1 @ F,0,0,1,0,15.875,0,1 @ F,0,0,1,0,15.875,0,1"
       lpeversion="1"
       is_visible="true"
       id="path-effect857"
       effect="fillet_chamfer" />
  </defs>
  <sodipodi:namedview
     inkscape:document-rotation="0"
     inkscape:pagecheckerboard="true"
     inkscape:window-maximized="1"
     inkscape:window-y="332"
     inkscape:window-x="1192"
     inkscape:window-height="1137"
     inkscape:window-width="1920"
     inkscape:guide-bbox="true"
     showguides="true"
     showgrid="false"
     inkscape:current-layer="layer2"
     inkscape:document-units="mm"
     inkscape:cy="-83.592266"
     inkscape:cx="-2537.7359"
     inkscape:zoom="0.12374369"
     inkscape:pageshadow="2"
     inkscape:pageopacity="0.0"
     borderopacity="1.0"
     bordercolor="#666666"
     pagecolor="#ffffff"
     id="base">
    <sodipodi:guide
       position="249.99723,661.41691"
       orientation="1,0"
       id="guide4532"
       inkscape:locked="false" />
    <sodipodi:guide
       position="-17.773423,418.00954"
       orientation="0,1"
       id="guide4534"
       inkscape:locked="false" />
    <sodipodi:guide
       position="53.58754,109.98141"
       orientation="0,1"
       id="guide4536"
       inkscape:locked="false" />
    <sodipodi:guide
       position="246.96019,500.00344"
       orientation="0,1"
       id="guide4538"
       inkscape:locked="false" />
    <sodipodi:guide
       position="224.8906,0.016704345"
       orientation="0,1"
       id="guide4540"
       inkscape:locked="false" />
    <sodipodi:guide
       position="18.001116,419.22284"
       orientation="1,0"
       id="guide4542"
       inkscape:locked="false" />
    <sodipodi:guide
       position="481.96689,407.55283"
       orientation="1,0"
       id="guide4544"
       inkscape:locked="false" />
    <sodipodi:guide
       position="51.971726,108.05394"
       orientation="1,0"
       id="guide4546"
       inkscape:locked="false" />
    <sodipodi:guide
       position="447.94903,101.01414"
       orientation="1,0"
       id="guide4548"
       inkscape:locked="false" />
  </sodipodi:namedview>
  <metadata
     id="metadata5">
    <rdf:RDF>
      <cc:Work
         rdf:about="">
        <dc:format>image/svg+xml</dc:format>
        <dc:type
           rdf:resource="http://purl.org/dc/dcmitype/StillImage" />
        <dc:title />
      </cc:Work>
    </rdf:RDF>
  </metadata>
  <g
     style="display:inline"
     inkscape:label="Ebene 2"
     id="layer2"
     inkscape:groupmode="layer">
    <path
       inkscape:original-d="M 944.5332,3.0195312 A 50.000001,50.000001 0 0 0 928.20898,5.875 L 105.41992,296.67188 a 50.000001,50.000001 0 0 0 -33.037108,52.625 L 193.5957,1448.4004 a 50.000001,50.000001 0 0 0 25.42578,38.2305 l 296.11719,164.4355 v -515.5019 c 0,-17.5782 -5.53384,-35.4818 -16.60156,-53.711 -11.06772,-18.2292 -22.46091,-32.8776 -34.17969,-43.9453 -11.71875,-11.7187 -30.59895,-29.2969 -56.64062,-52.73437 L 552.24805,803.5332 c 4.5573,3.25523 15.62499,11.71877 33.20312,25.39063 18.22919,13.67188 30.27344,23.4375 36.13281,29.29687 5.85938,5.85938 14.64844,15.29947 26.36719,28.32032 12.36979,13.02085 22.1354,27.01822 29.29688,41.99218 7.81251,14.32293 14.97396,31.24999 21.48437,50.78125 C 776.20644,877.7519 886.88338,826.9707 1030.7637,826.9707 c 82.6823,0 147.4609,24.73955 194.3359,74.21875 47.5261,48.82815 71.2891,119.14055 71.2891,210.93755 v 29.2968 l -246.0938,1.9532 c 1.3021,-14.323 1.9531,-28.6459 1.9531,-42.9688 0,-50.7813 -21.4843,-76.1719 -64.45308,-76.1719 -29.29691,0 -63.15103,20.5078 -101.5625,61.5235 -38.41149,41.0156 -80.0781,104.4921 -125,190.4297 v 511.5351 l 159.36133,88.4942 a 50.000001,50.000001 0 0 0 48.55469,0 l 701.30466,-389.5839 a 50.000001,50.000001 0 0 0 25.418,-38.2207 L 1817.2539,349.30078 a 50.000001,50.000001 0 0 0 -33.0351,-52.63086 L 961.5332,5.8769531 a 50.000001,50.000001 0 0 0 -17,-2.8574219 z"
       inkscape:path-effect="#path-effect857"
       transform="scale(0.26458333)"
       d="m 928.94062,5.6228238 c -0.40521,0.1361664 -7.4329,2.6205905 -15.69932,5.5421772 L 120.3876,291.38188 c -8.26642,2.92159 -21.943337,7.50865 -28.854784,12.84308 -9.400808,7.2558 -15.933855,17.66233 -18.382939,29.2823 -1.800559,8.54296 0.01205,22.85427 0.973134,31.56895 L 191.8555,1432.6211 c 0.96109,8.7147 2.31608,23.0756 5.93538,31.0208 2.20865,4.8485 5.17927,9.3152 8.79665,13.2268 5.92777,6.4099 18.64766,13.2127 26.31267,17.4691 l 268.35975,149.0217 a 9.3429454,9.3429454 149.52183 0 0 13.87872,-8.1681 v -483.7519 c 0,-8.7675 0.12479,-23.0508 -1.47107,-31.6593 -1.46596,-7.9078 -4.02754,-15.88 -7.68476,-23.9166 -3.62935,-7.9755 -11.08559,-20.1231 -16.04231,-27.3536 -4.81916,-7.0299 -9.6982,-13.401 -14.63714,-19.1132 -5.73195,-6.6294 -15.97614,-16.5111 -22.31961,-22.5631 -8.87134,-8.4637 -20.03441,-18.8025 -33.48923,-31.01625 -6.49155,-5.8928 -7.35234,-16.20528 -1.89333,-23.06593 L 542.36363,815.95551 c 5.45901,-6.86065 15.61641,-8.21883 22.57683,-2.88809 2.37475,1.81873 5.02988,3.86177 7.9654,6.12912 6.93861,5.35928 18.24597,13.97319 25.17755,19.34172 4.3836,3.3951 8.24623,6.46118 11.58789,9.19822 6.78026,5.55348 16.91681,15.53368 22.89096,21.95018 1.48806,1.59824 3.06013,3.29916 4.71621,5.10277 5.92973,6.45793 15.64065,16.85881 21.09247,23.72154 4.14576,5.21866 7.90841,10.58098 11.28797,16.08697 4.58434,7.46883 11.02643,20.1657 14.7182,28.11639 3.13288,6.74707 6.14925,13.96015 9.04912,21.63926 3.09719,8.20164 9.59234,9.28728 15.16931,2.52283 73.92083,-89.66048 176.01905,-136.22581 306.29506,-139.69613 8.7641,-0.23346 22.984,-0.24706 31.744,0.10297 68.8691,2.75187 124.5882,23.67466 167.1573,62.76842 6.4563,5.92918 16.316,16.19701 21.955,22.90799 37.8665,45.06513 57.9992,106.16333 60.3984,183.29483 0.2725,8.7629 0.2434,22.98 0.2434,31.7475 a 14.815985,14.815985 139.52153 0 1 -15.8745,13.5478 l -214.3448,1.7012 c -8.7672,0.07 -15.203,-6.9521 -14.7005,-15.7048 0.2157,-3.7553 0.3865,-7.5107 0.5126,-11.266 0.2942,-8.7622 0.3977,-23.0047 -0.5147,-31.7206 -3.5892,-34.2877 -19.5464,-53.9586 -47.8717,-59.0126 -8.62003,-1.5381 -23.00701,-1.415 -31.53036,0.5574 -22.50179,5.207 -47.42258,21.2998 -74.76244,48.2782 -6.24028,6.1578 -15.94757,16.5511 -21.68108,23.1833 -33.28729,38.5049 -68.94516,93.3671 -106.97372,164.5868 -4.12966,7.734 -7.41508,21.1443 -7.41508,29.9118 v 479.7851 a 26.973892,26.973892 59.521824 0 0 13.87872,23.5819 l 131.60389,73.0804 c 7.66501,4.2564 20.16333,11.4584 28.7379,13.102 6.22053,1.1925 12.6158,1.1925 18.83634,0 8.57456,-1.6436 21.07234,-8.8466 28.73667,-13.1042 L 1656.5756,1494.344 c 7.6643,-4.2576 20.3831,-11.0625 26.3098,-17.4733 3.6136,-3.9088 6.5814,-8.3715 8.7887,-13.2154 3.6203,-7.9448 4.9772,-22.3056 5.9396,-31.0202 L 1815.5113,365.07985 c 0.9624,-8.71454 2.777,-23.0256 0.9775,-31.5688 -2.4479,-11.62194 -8.9812,-22.03057 -18.3831,-29.28767 -6.9113,-5.33462 -20.5881,-9.92211 -28.8544,-12.84399 L 976.5007,11.167483 c -8.26632,-2.9218792 -21.78901,-7.9422021 -30.51758,-8.1366762 -0.80067,-0.017838 -8.76653,-0.1890146 -17.0425,2.592017 z"
       style="fill:#404040;fill-opacity:1;stroke:none;stroke-width:0.999999px;stroke-linecap:butt;stroke-linejoin:miter;stroke-opacity:1"
       id="path4550" />
  </g>
  <g
     style="display:none"
     inkscape:label="Ebene 3"
     id="layer1"
     inkscape:groupmode="layer">
    <g
       style="font-style:normal;font-variant:normal;font-weight:normal;font-stretch:normal;font-size:25.4px;line-height:1.25;font-family:Bahnschrift;-inkscape-font-specification:Bahnschrift;letter-spacing:0px;word-spacing:0px;fill:#fdffff;fill-opacity:1;stroke:none;stroke-width:0.264583"
       id="text869"
       aria-label="r" />
  </g>
</svg>
